<svg width="25" height="25" viewBox="0 0 25 25" fill="none" xmlns="http://www.w3.org/2000/svg">
<path d="M18.2917 21.875C18.1251 21.8757 17.9608 21.8364 17.8125 21.7604L12.5 18.9792L7.1875 21.7604C7.01499 21.8511 6.82049 21.8916 6.62612 21.8773C6.43174 21.863 6.24529 21.7944 6.08794 21.6794C5.9306 21.5643 5.80868 21.4075 5.73605 21.2266C5.66342 21.0457 5.64299 20.8481 5.67708 20.6562L6.71875 14.7917L2.42708 10.625C2.29318 10.4914 2.1982 10.3238 2.15232 10.1403C2.10644 9.95678 2.1114 9.76423 2.16666 9.58332C2.22704 9.39819 2.3381 9.23369 2.48724 9.10849C2.63638 8.98328 2.81762 8.90239 3.01041 8.87499L8.94791 8.0104L11.5625 2.66666C11.6478 2.49054 11.781 2.34201 11.9468 2.23809C12.1126 2.13416 12.3043 2.07904 12.5 2.07904C12.6957 2.07904 12.8874 2.13416 13.0532 2.23809C13.219 2.34201 13.3522 2.49054 13.4375 2.66666L16.0833 7.99999L22.0208 8.86457C22.2136 8.89197 22.3949 8.97287 22.544 9.09807C22.6931 9.22327 22.8042 9.38777 22.8646 9.5729C22.9198 9.75382 22.9248 9.94636 22.8789 10.1299C22.833 10.3134 22.7381 10.481 22.6042 10.6146L18.3125 14.7812L19.3542 20.6458C19.3914 20.8411 19.3719 21.043 19.298 21.2275C19.2242 21.4121 19.0991 21.5717 18.9375 21.6875C18.7489 21.8197 18.5217 21.8856 18.2917 21.875ZM12.5 16.7708C12.667 16.7666 12.8322 16.8061 12.9792 16.8854L16.9062 18.9687L16.1562 14.5833C16.1271 14.4159 16.1395 14.2438 16.1921 14.0823C16.2448 13.9207 16.3362 13.7744 16.4583 13.6562L19.5833 10.6042L15.2083 9.95832C15.0479 9.92602 14.8973 9.85637 14.7688 9.75503C14.6403 9.65368 14.5375 9.52348 14.4687 9.37499L12.5 5.46874L10.5312 9.37499C10.4559 9.52468 10.3455 9.65398 10.2095 9.7519C10.0735 9.84983 9.91586 9.91349 9.75 9.93749L5.375 10.5833L8.5 13.6354C8.62216 13.7536 8.71355 13.8998 8.76621 14.0614C8.81886 14.223 8.83118 14.395 8.80208 14.5625L8.05208 18.8958L11.9792 16.8125C12.1456 16.7506 12.3259 16.7362 12.5 16.7708Z" fill="#FB801E"/>
</svg>
