<svg width="73" height="50" viewBox="0 0 73 87" fill="none" xmlns="http://www.w3.org/2000/svg">
<path d="M21.6333 61.3965V65H5.43213V61.3965L10.5298 60.1953V27.793L5.43213 26.5918V23.3105L18.0298 22.9883L37.8345 56.5332V27.793L32.7368 26.5918V23.3105L48.3228 22.9883V26.5918L43.2251 27.793V65H35.7251L15.9204 31.9531V60.1953L21.6333 61.3965Z" fill="#F2A40D"/>
<path d="M58.6011 41.2988V46.1035H44.8022V60.1953L50.8081 61.3965V65H33.4058V61.3965L38.5034 60.1953V27.793L33.4058 26.5918V23.3105L44.8022 22.9883H63.1128V32.8906H59.2163L57.6929 27.793H44.8022V41.2988H58.6011Z" fill="#F2A40D"/>
<path d="M3.10059 79.3994V80H0.400391V79.3994L1.25 79.1992V73.7988L0.400391 73.5986V73.0518L2.5 72.998L5.80078 78.5889V73.7988L4.95117 73.5986V73.0518L7.54883 72.998V73.5986L6.69922 73.7988V80H5.44922L2.14844 74.4922V79.1992L3.10059 79.3994ZM8.9502 73.0518C8.9502 72.8304 9.01367 72.6579 9.14062 72.5342C9.26758 72.4105 9.42057 72.3486 9.59961 72.3486C10.0326 72.3486 10.249 72.583 10.249 73.0518C10.249 73.2666 10.1823 73.4375 10.0488 73.5645C9.91536 73.6882 9.76562 73.75 9.59961 73.75C9.40104 73.75 9.24316 73.6882 9.12598 73.5645C9.00879 73.4408 8.9502 73.2699 8.9502 73.0518ZM10.8984 80H8.30078V79.4482L9.15039 79.1992V75.498L8.30078 75.2979V74.751L10.1514 74.7021V79.1992L10.8984 79.4482V80ZM15.0977 75.498C15.0521 75.485 14.943 75.4655 14.7705 75.4395C14.598 75.4134 14.4076 75.4004 14.1992 75.4004C13.7207 75.4004 13.3512 75.555 13.0908 75.8643C12.8304 76.1735 12.7002 76.6357 12.7002 77.251C12.7002 77.9183 12.8369 78.4277 13.1104 78.7793C13.3838 79.1276 13.763 79.3018 14.248 79.3018C14.528 79.3018 14.7835 79.2562 15.0146 79.165C15.2458 79.0739 15.4346 78.9779 15.5811 78.877C15.7275 78.7728 15.8008 78.7142 15.8008 78.7012L16.1523 79.3018C16.1523 79.3148 16.0482 79.3913 15.8398 79.5312C15.6348 79.6712 15.3825 79.8014 15.083 79.9219C14.7868 80.0391 14.4759 80.0977 14.1504 80.0977C13.3366 80.0977 12.7165 79.8568 12.29 79.375C11.8636 78.8932 11.6504 78.2178 11.6504 77.3486C11.6504 76.8148 11.7562 76.3395 11.9678 75.9229C12.1826 75.5062 12.4854 75.1823 12.876 74.9512C13.2666 74.7168 13.724 74.5996 14.248 74.5996C14.515 74.5996 14.7754 74.6305 15.0293 74.6924C15.2832 74.751 15.4899 74.8128 15.6494 74.8779C15.8089 74.9398 15.9098 74.9805 15.9521 75L15.8984 76.3477H15.249L15.0977 75.498ZM17.7979 77.5C17.7979 78.0469 17.9313 78.4847 18.1982 78.8135C18.4652 79.139 18.8151 79.3018 19.248 79.3018C19.541 79.3018 19.8128 79.2611 20.0635 79.1797C20.3141 79.0983 20.5208 79.0104 20.6836 78.916C20.8464 78.8184 20.9277 78.763 20.9277 78.75L21.2793 79.2676C21.2793 79.2806 21.1702 79.362 20.9521 79.5117C20.7373 79.6582 20.4704 79.7933 20.1514 79.917C19.8356 80.0374 19.5003 80.0977 19.1455 80.0977C18.3577 80.0977 17.7604 79.86 17.3535 79.3848C16.9499 78.9095 16.748 78.2487 16.748 77.4023C16.748 76.875 16.8506 76.3981 17.0557 75.9717C17.264 75.5452 17.5537 75.21 17.9248 74.9658C18.2992 74.7217 18.724 74.5996 19.1992 74.5996C20.599 74.5996 21.2988 75.3825 21.2988 76.9482C21.2988 77.0557 21.2923 77.1631 21.2793 77.2705C21.2663 77.3779 21.2565 77.4479 21.25 77.4805L17.7979 77.5ZM20.2393 76.748C20.2393 76.3411 20.1514 76.0124 19.9756 75.7617C19.8031 75.5078 19.5264 75.3809 19.1455 75.3809C18.7581 75.3809 18.4505 75.5111 18.2227 75.7715C17.998 76.0319 17.8695 76.3574 17.8369 76.748H20.2393ZM28.6523 76.0498V76.8506H26.3525V79.1992L27.3535 79.3994V80H24.4531V79.3994L25.3027 79.1992V73.7988L24.4531 73.5986V73.0518L26.3525 72.998H29.4043V74.6484H28.7549L28.501 73.7988H26.3525V76.0498H28.6523ZM36.0059 79.9512L34.3555 80L34.2578 79.3018C34.0592 79.4808 33.7891 79.6582 33.4473 79.834C33.1055 80.0098 32.7588 80.0977 32.4072 80.0977C31.8734 80.0977 31.473 79.9414 31.2061 79.6289C30.9391 79.3164 30.8057 78.877 30.8057 78.3105V75.498L29.9561 75.2979V74.751L31.8066 74.7021V78.208C31.8066 78.5628 31.8766 78.8249 32.0166 78.9941C32.1566 79.1634 32.3861 79.248 32.7051 79.248C32.959 79.248 33.1917 79.1911 33.4033 79.0771C33.6182 78.96 33.7972 78.8314 33.9404 78.6914C34.0837 78.5514 34.1553 78.4749 34.1553 78.4619V75.498L33.3057 75.2979V74.751L35.1562 74.7021V79.1992L36.0059 79.3994V79.9512ZM38.3984 75.4297C38.5872 75.2246 38.8102 75.0358 39.0674 74.8633C39.3278 74.6875 39.6094 74.5996 39.9121 74.5996C40.0586 74.5996 40.1969 74.611 40.3271 74.6338C40.4606 74.6566 40.5697 74.681 40.6543 74.707C40.7389 74.7298 40.791 74.7445 40.8105 74.751L40.7617 76.2012H40.1074L39.9609 75.4492C39.6289 75.4492 39.3424 75.529 39.1016 75.6885C38.8607 75.848 38.6637 76.0286 38.5107 76.2305V79.1992L39.5117 79.4482V80H36.6602V79.4482L37.5098 79.1992V75.498L36.6602 75.2979V74.751L38.3105 74.7021L38.3984 75.4297ZM43.0469 75.4102C43.2552 75.2311 43.527 75.0521 43.8623 74.873C44.2008 74.6908 44.5492 74.5996 44.9072 74.5996C45.4411 74.5996 45.8415 74.7591 46.1084 75.0781C46.3753 75.3939 46.5088 75.835 46.5088 76.4014V79.1992L47.2559 79.4482V80H44.8584V79.4482L45.5078 79.1992V76.499C45.5078 76.1377 45.4378 75.8724 45.2979 75.7031C45.1579 75.5339 44.9284 75.4492 44.6094 75.4492C44.3555 75.4492 44.1211 75.5094 43.9062 75.6299C43.6947 75.7503 43.5173 75.8805 43.374 76.0205C43.2308 76.1605 43.1592 76.237 43.1592 76.25V79.1992L43.8086 79.4482V80H41.3086V79.4482L42.1582 79.1992V75.498L41.3086 75.2979V74.751L42.959 74.7021L43.0469 75.4102ZM48.6084 73.0518C48.6084 72.8304 48.6719 72.6579 48.7988 72.5342C48.9258 72.4105 49.0788 72.3486 49.2578 72.3486C49.6908 72.3486 49.9072 72.583 49.9072 73.0518C49.9072 73.2666 49.8405 73.4375 49.707 73.5645C49.5736 73.6882 49.4238 73.75 49.2578 73.75C49.0592 73.75 48.9014 73.6882 48.7842 73.5645C48.667 73.4408 48.6084 73.2699 48.6084 73.0518ZM50.5566 80H47.959V79.4482L48.8086 79.1992V75.498L47.959 75.2979V74.751L49.8096 74.7021V79.1992L50.5566 79.4482V80ZM54.5605 75.498H53.1104V78.7109C53.1104 79.1178 53.2764 79.3213 53.6084 79.3213C53.8232 79.3213 54.0837 79.2383 54.3896 79.0723L54.6582 79.5996C54.2057 79.9316 53.7386 80.0977 53.2568 80.0977C52.9183 80.0977 52.6416 79.987 52.4268 79.7656C52.2152 79.541 52.1094 79.1699 52.1094 78.6523V75.498H51.1084V74.8486L52.1094 74.751V73.4912L53.1104 73.291V74.751H54.5605V75.498ZM61.1035 79.9512L59.4531 80L59.3555 79.3018C59.1569 79.4808 58.8867 79.6582 58.5449 79.834C58.2031 80.0098 57.8564 80.0977 57.5049 80.0977C56.971 80.0977 56.5706 79.9414 56.3037 79.6289C56.0368 79.3164 55.9033 78.877 55.9033 78.3105V75.498L55.0537 75.2979V74.751L56.9043 74.7021V78.208C56.9043 78.5628 56.9743 78.8249 57.1143 78.9941C57.2542 79.1634 57.4837 79.248 57.8027 79.248C58.0566 79.248 58.2894 79.1911 58.501 79.0771C58.7158 78.96 58.8949 78.8314 59.0381 78.6914C59.1813 78.5514 59.2529 78.4749 59.2529 78.4619V75.498L58.4033 75.2979V74.751L60.2539 74.7021V79.1992L61.1035 79.3994V79.9512ZM63.4961 75.4297C63.6849 75.2246 63.9079 75.0358 64.165 74.8633C64.4255 74.6875 64.707 74.5996 65.0098 74.5996C65.1562 74.5996 65.2946 74.611 65.4248 74.6338C65.5583 74.6566 65.6673 74.681 65.752 74.707C65.8366 74.7298 65.8887 74.7445 65.9082 74.751L65.8594 76.2012H65.2051L65.0586 75.4492C64.7266 75.4492 64.4401 75.529 64.1992 75.6885C63.9583 75.848 63.7614 76.0286 63.6084 76.2305V79.1992L64.6094 79.4482V80H61.7578V79.4482L62.6074 79.1992V75.498L61.7578 75.2979V74.751L63.4082 74.7021L63.4961 75.4297ZM67.4561 77.5C67.4561 78.0469 67.5895 78.4847 67.8564 78.8135C68.1234 79.139 68.4733 79.3018 68.9062 79.3018C69.1992 79.3018 69.471 79.2611 69.7217 79.1797C69.9723 79.0983 70.179 79.0104 70.3418 78.916C70.5046 78.8184 70.5859 78.763 70.5859 78.75L70.9375 79.2676C70.9375 79.2806 70.8285 79.362 70.6104 79.5117C70.3955 79.6582 70.1286 79.7933 69.8096 79.917C69.4938 80.0374 69.1585 80.0977 68.8037 80.0977C68.016 80.0977 67.4186 79.86 67.0117 79.3848C66.6081 78.9095 66.4062 78.2487 66.4062 77.4023C66.4062 76.875 66.5088 76.3981 66.7139 75.9717C66.9222 75.5452 67.2119 75.21 67.583 74.9658C67.9574 74.7217 68.3822 74.5996 68.8574 74.5996C70.2572 74.5996 70.957 75.3825 70.957 76.9482C70.957 77.0557 70.9505 77.1631 70.9375 77.2705C70.9245 77.3779 70.9147 77.4479 70.9082 77.4805L67.4561 77.5ZM69.8975 76.748C69.8975 76.3411 69.8096 76.0124 69.6338 75.7617C69.4613 75.5078 69.1846 75.3809 68.8037 75.3809C68.4163 75.3809 68.1087 75.5111 67.8809 75.7715C67.6562 76.0319 67.5277 76.3574 67.4951 76.748H69.8975Z" fill="#F2A40D"/>
</svg>
