<svg width="32" height="31" viewBox="0 0 32 31" fill="none" xmlns="http://www.w3.org/2000/svg">
<path d="M27.0001 21C25.6908 21.001 24.4341 21.5157 23.5001 22.4333L10.3335 16.5666C10.3335 16.3666 10.3335 16.2 10.3335 16C10.3335 15.8 10.3335 15.6333 10.3335 15.45L23.5001 9.56664C24.3248 10.375 25.4039 10.873 26.5541 10.976C27.7043 11.079 28.8547 10.7807 29.8099 10.1317C30.7651 9.48279 31.4663 8.5232 31.7942 7.41595C32.1222 6.3087 32.0568 5.12206 31.6091 4.05756C31.1614 2.99306 30.3591 2.11635 29.3383 1.57632C28.3176 1.03629 27.1414 0.866237 26.0094 1.09505C24.8775 1.32386 23.8597 1.93742 23.1289 2.83153C22.398 3.72564 21.9992 4.84516 22.0001 5.99997V6.56664L8.83347 12.4333C8.13074 11.7429 7.23971 11.2755 6.27225 11.0897C5.30478 10.9039 4.30399 11.0081 3.39552 11.3891C2.48704 11.7701 1.71137 12.411 1.16587 13.2313C0.620363 14.0516 0.329346 15.0148 0.329346 16C0.329346 16.9851 0.620363 17.9483 1.16587 18.7686C1.71137 19.5889 2.48704 20.2298 3.39552 20.6109C4.30399 20.9919 5.30478 21.096 6.27225 20.9103C7.23971 20.7245 8.13074 20.257 8.83347 19.5666L22.0001 25.45V26C22.0001 26.9889 22.2934 27.9556 22.8428 28.7778C23.3922 29.6001 24.1731 30.2409 25.0867 30.6194C26.0004 30.9978 27.0057 31.0968 27.9756 30.9039C28.9455 30.711 29.8364 30.2348 30.5357 29.5355C31.2349 28.8362 31.7111 27.9453 31.9041 26.9754C32.097 26.0055 31.998 25.0002 31.6195 24.0866C31.2411 23.1729 30.6002 22.392 29.778 21.8426C28.9557 21.2932 27.989 21 27.0001 21Z" fill="#231F20"/>
</svg>
