<svg width="20" height="21" viewBox="0 0 20 21" fill="none" xmlns="http://www.w3.org/2000/svg">
<path d="M12.7714 0.00759961C12.2286 0.0647425 11.7143 0.436171 11.4286 0.979028C11.0571 1.72189 8.31429 7.23617 7.77143 7.77903C7.22857 8.32189 6.51429 8.57903 5.71429 8.57903V20.0076H15.7143C16.3143 20.0076 16.8286 19.6362 17.0571 19.1219C17.0571 19.1219 20 10.8076 20 10.0076C20 9.2076 19.3714 8.57903 18.5714 8.57903H14.2857C13.4857 8.57903 12.8571 7.86474 12.8571 7.15046C12.8571 6.43617 13.9714 2.63617 14.2 1.89331C14.4286 1.15046 14.0571 0.350457 13.3143 0.0933139C13.1143 0.036171 12.9714 -0.0209718 12.7714 0.00759961ZM0 8.57903V20.0076H2.85714V8.57903H0Z" fill="#646363"/>
</svg>
