<svg width="17" height="19" viewBox="0 0 17 19" fill="none" xmlns="http://www.w3.org/2000/svg">
<path d="M12.4383 16.6134C12.325 16.6139 12.2133 16.5841 12.1125 16.5264L8.49995 14.4141L4.88745 16.5264C4.77015 16.5953 4.63789 16.626 4.50572 16.6152C4.37354 16.6043 4.24675 16.5522 4.13976 16.4648C4.03276 16.3775 3.94986 16.2583 3.90047 16.121C3.85108 15.9836 3.83719 15.8335 3.86037 15.6878L4.5687 11.2338L1.65037 8.0693C1.55932 7.96782 1.49473 7.84056 1.46353 7.70119C1.43233 7.56181 1.43571 7.41558 1.47329 7.27818C1.51434 7.13758 1.58986 7.01264 1.69128 6.91755C1.79269 6.82247 1.91594 6.76103 2.04704 6.74022L6.08454 6.08359L7.86245 2.02514C7.92046 1.89138 8.01102 1.77858 8.12377 1.69965C8.23651 1.62072 8.36689 1.57886 8.49995 1.57886C8.63302 1.57886 8.76339 1.62072 8.87614 1.69965C8.98889 1.77858 9.07945 1.89138 9.13745 2.02514L10.9366 6.07568L14.9741 6.73231C15.1052 6.75312 15.2285 6.81455 15.3299 6.90964C15.4313 7.00473 15.5068 7.12967 15.5479 7.27027C15.5855 7.40767 15.5888 7.5539 15.5576 7.69328C15.5264 7.83265 15.4618 7.95991 15.3708 8.06139L12.4525 11.2259L13.1608 15.6799C13.1861 15.8282 13.1728 15.9815 13.1226 16.1217C13.0724 16.2619 12.9873 16.3831 12.8775 16.471C12.7492 16.5714 12.5947 16.6215 12.4383 16.6134Z" fill="#FB801E"/>
</svg>
