<svg width="256" height="252" viewBox="0 0 256 252" fill="none" xmlns="http://www.w3.org/2000/svg">
<ellipse cx="128" cy="127.443" rx="128" ry="124.557" fill="#2C3639"/>
<path d="M96.0073 160.312V168H61.4448V160.312L72.3198 157.75V88.625L61.4448 86.0625V79.0625L88.3198 78.375L130.57 149.938V88.625L119.695 86.0625V79.0625L152.945 78.375V86.0625L142.07 88.625V168H126.07L83.8198 97.5V157.75L96.0073 160.312Z" fill="#F2A40D"/>
<path d="M174.587 117.438V127.688H145.149V157.75L157.962 160.312V168H120.837V160.312L131.712 157.75V88.625L120.837 86.0625V79.0625L145.149 78.375H184.212V99.5H175.899L172.649 88.625H145.149V117.438H174.587Z" fill="#F2A40D"/>
<path d="M46.353 196.895V198.336H39.8726V196.895L41.9116 196.414V183.453L39.8726 182.973V181.66L44.9116 181.531L52.8335 194.949V183.453L50.7944 182.973V181.66L57.0288 181.531V182.973L54.9897 183.453V198.336H51.9897L44.0679 185.117V196.414L46.353 196.895ZM60.3921 181.66C60.3921 181.129 60.5444 180.715 60.8491 180.418C61.1538 180.121 61.521 179.973 61.9507 179.973C62.9897 179.973 63.5093 180.535 63.5093 181.66C63.5093 182.176 63.3491 182.586 63.0288 182.891C62.7085 183.188 62.3491 183.336 61.9507 183.336C61.4741 183.336 61.0952 183.188 60.814 182.891C60.5327 182.594 60.3921 182.184 60.3921 181.66ZM65.0679 198.336H58.8335V197.012L60.8726 196.414V187.531L58.8335 187.051V185.738L63.2749 185.621V196.414L65.0679 197.012V198.336ZM75.146 187.531C75.0366 187.5 74.7749 187.453 74.3608 187.391C73.9468 187.328 73.4897 187.297 72.9897 187.297C71.8413 187.297 70.9546 187.668 70.3296 188.41C69.7046 189.152 69.3921 190.262 69.3921 191.738C69.3921 193.34 69.7202 194.563 70.3765 195.406C71.0327 196.242 71.9429 196.66 73.1069 196.66C73.7788 196.66 74.3921 196.551 74.9468 196.332C75.5015 196.113 75.9546 195.883 76.3062 195.641C76.6577 195.391 76.8335 195.25 76.8335 195.219L77.6772 196.66C77.6772 196.691 77.4272 196.875 76.9272 197.211C76.4351 197.547 75.8296 197.859 75.1108 198.148C74.3999 198.43 73.6538 198.57 72.8726 198.57C70.9194 198.57 69.4312 197.992 68.4077 196.836C67.3843 195.68 66.8726 194.059 66.8726 191.973C66.8726 190.691 67.1265 189.551 67.6343 188.551C68.1499 187.551 68.8765 186.773 69.814 186.219C70.7515 185.656 71.8491 185.375 73.1069 185.375C73.7476 185.375 74.3726 185.449 74.9819 185.598C75.5913 185.738 76.0874 185.887 76.4702 186.043C76.853 186.191 77.0952 186.289 77.1968 186.336L77.0679 189.57H75.5093L75.146 187.531ZM81.6265 192.336C81.6265 193.648 81.9468 194.699 82.5874 195.488C83.228 196.27 84.0679 196.66 85.1069 196.66C85.8101 196.66 86.4624 196.563 87.064 196.367C87.6655 196.172 88.1616 195.961 88.5522 195.734C88.9429 195.5 89.1382 195.367 89.1382 195.336L89.9819 196.578C89.9819 196.609 89.7202 196.805 89.1968 197.164C88.6812 197.516 88.0405 197.84 87.2749 198.137C86.5171 198.426 85.7124 198.57 84.8608 198.57C82.9702 198.57 81.5366 198 80.5601 196.859C79.5913 195.719 79.1069 194.133 79.1069 192.102C79.1069 190.836 79.353 189.691 79.8452 188.668C80.3452 187.645 81.0405 186.84 81.9312 186.254C82.8296 185.668 83.8491 185.375 84.9897 185.375C88.3491 185.375 90.0288 187.254 90.0288 191.012C90.0288 191.27 90.0132 191.527 89.9819 191.785C89.9507 192.043 89.9272 192.211 89.9116 192.289L81.6265 192.336ZM87.4858 190.531C87.4858 189.555 87.2749 188.766 86.853 188.164C86.439 187.555 85.7749 187.25 84.8608 187.25C83.9312 187.25 83.1929 187.563 82.646 188.188C82.1069 188.813 81.7983 189.594 81.7202 190.531H87.4858ZM107.677 188.855V190.777H102.158V196.414L104.56 196.895V198.336H97.5991V196.895L99.6382 196.414V183.453L97.5991 182.973V181.66L102.158 181.531H109.482V185.492H107.923L107.314 183.453H102.158V188.855H107.677ZM125.326 198.219L121.365 198.336L121.13 196.66C120.654 197.09 120.005 197.516 119.185 197.938C118.365 198.359 117.533 198.57 116.689 198.57C115.408 198.57 114.447 198.195 113.806 197.445C113.166 196.695 112.845 195.641 112.845 194.281V187.531L110.806 187.051V185.738L115.248 185.621V194.035C115.248 194.887 115.416 195.516 115.751 195.922C116.087 196.328 116.638 196.531 117.404 196.531C118.013 196.531 118.572 196.395 119.08 196.121C119.595 195.84 120.025 195.531 120.369 195.195C120.712 194.859 120.884 194.676 120.884 194.645V187.531L118.845 187.051V185.738L123.287 185.621V196.414L125.326 196.895V198.219ZM131.068 187.367C131.521 186.875 132.056 186.422 132.673 186.008C133.298 185.586 133.974 185.375 134.701 185.375C135.052 185.375 135.384 185.402 135.697 185.457C136.017 185.512 136.279 185.57 136.482 185.633C136.685 185.688 136.81 185.723 136.857 185.738L136.74 189.219H135.169L134.818 187.414C134.021 187.414 133.333 187.605 132.755 187.988C132.177 188.371 131.705 188.805 131.337 189.289V196.414L133.74 197.012V198.336H126.896V197.012L128.935 196.414V187.531L126.896 187.051V185.738L130.857 185.621L131.068 187.367ZM142.224 187.32C142.724 186.891 143.376 186.461 144.181 186.031C144.994 185.594 145.83 185.375 146.689 185.375C147.97 185.375 148.931 185.758 149.572 186.523C150.212 187.281 150.533 188.34 150.533 189.699V196.414L152.326 197.012V198.336H146.572V197.012L148.13 196.414V189.934C148.13 189.066 147.962 188.43 147.626 188.023C147.291 187.617 146.74 187.414 145.974 187.414C145.365 187.414 144.802 187.559 144.287 187.848C143.779 188.137 143.353 188.449 143.009 188.785C142.666 189.121 142.494 189.305 142.494 189.336V196.414L144.052 197.012V198.336H138.052V197.012L140.091 196.414V187.531L138.052 187.051V185.738L142.013 185.621L142.224 187.32ZM155.572 181.66C155.572 181.129 155.724 180.715 156.029 180.418C156.333 180.121 156.701 179.973 157.13 179.973C158.169 179.973 158.689 180.535 158.689 181.66C158.689 182.176 158.529 182.586 158.208 182.891C157.888 183.188 157.529 183.336 157.13 183.336C156.654 183.336 156.275 183.188 155.994 182.891C155.712 182.594 155.572 182.184 155.572 181.66ZM160.248 198.336H154.013V197.012L156.052 196.414V187.531L154.013 187.051V185.738L158.455 185.621V196.414L160.248 197.012V198.336ZM169.857 187.531H166.376V195.242C166.376 196.219 166.775 196.707 167.572 196.707C168.087 196.707 168.712 196.508 169.447 196.109L170.091 197.375C169.005 198.172 167.884 198.57 166.728 198.57C165.916 198.57 165.251 198.305 164.736 197.773C164.228 197.234 163.974 196.344 163.974 195.102V187.531H161.572V185.973L163.974 185.738V182.715L166.376 182.234V185.738H169.857V187.531ZM185.56 198.219L181.599 198.336L181.365 196.66C180.888 197.09 180.24 197.516 179.419 197.938C178.599 198.359 177.767 198.57 176.923 198.57C175.642 198.57 174.681 198.195 174.041 197.445C173.4 196.695 173.08 195.641 173.08 194.281V187.531L171.041 187.051V185.738L175.482 185.621V194.035C175.482 194.887 175.65 195.516 175.986 195.922C176.322 196.328 176.873 196.531 177.638 196.531C178.248 196.531 178.806 196.395 179.314 196.121C179.83 195.84 180.259 195.531 180.603 195.195C180.947 194.859 181.119 194.676 181.119 194.645V187.531L179.08 187.051V185.738L183.521 185.621V196.414L185.56 196.895V198.219ZM191.302 187.367C191.755 186.875 192.291 186.422 192.908 186.008C193.533 185.586 194.208 185.375 194.935 185.375C195.287 185.375 195.619 185.402 195.931 185.457C196.251 185.512 196.513 185.57 196.716 185.633C196.919 185.688 197.044 185.723 197.091 185.738L196.974 189.219H195.404L195.052 187.414C194.255 187.414 193.568 187.605 192.99 187.988C192.412 188.371 191.939 188.805 191.572 189.289V196.414L193.974 197.012V198.336H187.13V197.012L189.169 196.414V187.531L187.13 187.051V185.738L191.091 185.621L191.302 187.367ZM200.806 192.336C200.806 193.648 201.126 194.699 201.767 195.488C202.408 196.27 203.248 196.66 204.287 196.66C204.99 196.66 205.642 196.563 206.244 196.367C206.845 196.172 207.341 195.961 207.732 195.734C208.123 195.5 208.318 195.367 208.318 195.336L209.162 196.578C209.162 196.609 208.9 196.805 208.376 197.164C207.861 197.516 207.22 197.84 206.455 198.137C205.697 198.426 204.892 198.57 204.041 198.57C202.15 198.57 200.716 198 199.74 196.859C198.771 195.719 198.287 194.133 198.287 192.102C198.287 190.836 198.533 189.691 199.025 188.668C199.525 187.645 200.22 186.84 201.111 186.254C202.009 185.668 203.029 185.375 204.169 185.375C207.529 185.375 209.208 187.254 209.208 191.012C209.208 191.27 209.193 191.527 209.162 191.785C209.13 192.043 209.107 192.211 209.091 192.289L200.806 192.336ZM206.666 190.531C206.666 189.555 206.455 188.766 206.033 188.164C205.619 187.555 204.955 187.25 204.041 187.25C203.111 187.25 202.373 187.563 201.826 188.188C201.287 188.813 200.978 189.594 200.9 190.531H206.666Z" fill="#F2A40D"/>
</svg>
